<?xml version="1.0" encoding="UTF-8" standalone="no"?><svg xmlns="http://www.w3.org/2000/svg" xmlns:xlink="http://www.w3.org/1999/xlink" contentScriptType="application/ecmascript" contentStyleType="text/css" height="1029px" preserveAspectRatio="none" style="width:1531px;height:1029px;background:#FFFFFF;" version="1.1" viewBox="0 0 1531 1029" width="1531px" zoomAndPan="magnify"><defs><filter height="300%" id="fgu23u5oo6sfa" width="300%" x="-1" y="-1"><feGaussianBlur result="blurOut" stdDeviation="2.0"/><feColorMatrix in="blurOut" result="blurOut2" type="matrix" values="0 0 0 0 0 0 0 0 0 0 0 0 0 0 0 0 0 0 .4 0"/><feOffset dx="4.0" dy="4.0" in="blurOut2" result="blurOut3"/><feBlend in="SourceGraphic" in2="blurOut3" mode="normal"/></filter></defs><g><text fill="#000000" font-family="sans-serif" font-size="18" lengthAdjust="spacing" textLength="269" x="629" y="30.6855">Starting and Stopping Recordings</text><rect fill="#FFFFFF" filter="url(#fgu23u5oo6sfa)" height="238.4609" style="stroke:#A80036;stroke-width:1.0;" width="10" x="632.5" y="271.6563"/><rect fill="#FFFFFF" filter="url(#fgu23u5oo6sfa)" height="117.0547" style="stroke:#A80036;stroke-width:1.0;" width="10" x="860.5" y="302.0078"/><rect fill="#FFFFFF" filter="url(#fgu23u5oo6sfa)" height="41.3516" style="stroke:#A80036;stroke-width:1.0;" width="10" x="865.5" y="340.3594"/><rect fill="#FFFFFF" filter="url(#fgu23u5oo6sfa)" height="30.3516" style="stroke:#A80036;stroke-width:1.0;" width="10" x="1162.5" y="449.4141"/><rect fill="#FFFFFF" filter="url(#fgu23u5oo6sfa)" height="679.3516" style="stroke:#000000;stroke-width:2.0;" width="1507" x="10" y="247.3047"/><rect fill="#FFFFFF" height="408.5391" style="stroke:none;stroke-width:1.0;" width="1507" x="10" y="518.1172"/><rect fill="#FFFFFF" filter="url(#fgu23u5oo6sfa)" height="335.3516" style="stroke:#000000;stroke-width:2.0;" width="1487" x="20" y="540.9531"/><rect fill="#FFFFFF" height="212.9453" style="stroke:none;stroke-width:1.0;" width="1487" x="20" y="663.3594"/><rect fill="#FFFFFF" filter="url(#fgu23u5oo6sfa)" height="48.7031" style="stroke:#000000;stroke-width:2.0;" width="1422.5" x="74.5" y="746.8984"/><line style="stroke:#A80036;stroke-width:1.0;stroke-dasharray:5.0,5.0;" x1="47" x2="47" y1="126.25" y2="943.6563"/><line style="stroke:#A80036;stroke-width:1.0;stroke-dasharray:5.0,5.0;" x1="171.5" x2="171.5" y1="126.25" y2="943.6563"/><line style="stroke:#A80036;stroke-width:1.0;stroke-dasharray:5.0,5.0;" x1="428" x2="428" y1="126.25" y2="943.6563"/><line style="stroke:#A80036;stroke-width:1.0;stroke-dasharray:5.0,5.0;" x1="637" x2="637" y1="126.25" y2="943.6563"/><line style="stroke:#A80036;stroke-width:1.0;stroke-dasharray:5.0,5.0;" x1="865.5" x2="865.5" y1="126.25" y2="943.6563"/><line style="stroke:#A80036;stroke-width:1.0;stroke-dasharray:5.0,5.0;" x1="1167" x2="1167" y1="126.25" y2="943.6563"/><line style="stroke:#A80036;stroke-width:1.0;stroke-dasharray:5.0,5.0;" x1="1286" x2="1286" y1="126.25" y2="943.6563"/><line style="stroke:#A80036;stroke-width:1.0;stroke-dasharray:5.0,5.0;" x1="1419" x2="1419" y1="126.25" y2="943.6563"/><text fill="#000000" font-family="sans-serif" font-size="14" lengthAdjust="spacing" textLength="29" x="30" y="123.1738">User</text><ellipse cx="47.5" cy="51.6406" fill="#FEFECE" filter="url(#fgu23u5oo6sfa)" rx="8" ry="8" style="stroke:#A80036;stroke-width:2.0;"/><path d="M47.5,59.6406 L47.5,86.6406 M34.5,67.6406 L60.5,67.6406 M47.5,86.6406 L34.5,101.6406 M47.5,86.6406 L60.5,101.6406 " fill="none" filter="url(#fgu23u5oo6sfa)" style="stroke:#A80036;stroke-width:2.0;"/><text fill="#000000" font-family="sans-serif" font-size="14" lengthAdjust="spacing" textLength="29" x="30" y="957.1895">User</text><ellipse cx="47.5" cy="970.2656" fill="#FEFECE" filter="url(#fgu23u5oo6sfa)" rx="8" ry="8" style="stroke:#A80036;stroke-width:2.0;"/><path d="M47.5,978.2656 L47.5,1005.2656 M34.5,986.2656 L60.5,986.2656 M47.5,1005.2656 L34.5,1020.2656 M47.5,1005.2656 L60.5,1020.2656 " fill="none" filter="url(#fgu23u5oo6sfa)" style="stroke:#A80036;stroke-width:2.0;"/><rect fill="#FEFECE" filter="url(#fgu23u5oo6sfa)" height="31.6094" style="stroke:#A80036;stroke-width:1.5;" width="170" x="84.5" y="89.6406"/><text fill="#000000" font-family="sans-serif" font-size="14" lengthAdjust="spacing" textLength="156" x="91.5" y="111.1738">MeasurementRegionTab</text><rect fill="#FEFECE" filter="url(#fgu23u5oo6sfa)" height="31.6094" style="stroke:#A80036;stroke-width:1.5;" width="170" x="84.5" y="942.6563"/><text fill="#000000" font-family="sans-serif" font-size="14" lengthAdjust="spacing" textLength="156" x="91.5" y="964.1895">MeasurementRegionTab</text><rect fill="#FEFECE" filter="url(#fgu23u5oo6sfa)" height="31.6094" style="stroke:#A80036;stroke-width:1.5;" width="171" x="341" y="89.6406"/><text fill="#000000" font-family="sans-serif" font-size="14" lengthAdjust="spacing" textLength="157" x="348" y="111.1738">AlgometerReadingGraph</text><rect fill="#FEFECE" filter="url(#fgu23u5oo6sfa)" height="31.6094" style="stroke:#A80036;stroke-width:1.5;" width="171" x="341" y="942.6563"/><text fill="#000000" font-family="sans-serif" font-size="14" lengthAdjust="spacing" textLength="157" x="348" y="964.1895">AlgometerReadingGraph</text><rect fill="#FEFECE" filter="url(#fgu23u5oo6sfa)" height="31.6094" style="stroke:#A80036;stroke-width:1.5;" width="219" x="526" y="89.6406"/><text fill="#000000" font-family="sans-serif" font-size="14" lengthAdjust="spacing" textLength="205" x="533" y="111.1738">AlgometerReadingGraph.update</text><rect fill="#FEFECE" filter="url(#fgu23u5oo6sfa)" height="31.6094" style="stroke:#A80036;stroke-width:1.5;" width="219" x="526" y="942.6563"/><text fill="#000000" font-family="sans-serif" font-size="14" lengthAdjust="spacing" textLength="205" x="533" y="964.1895">AlgometerReadingGraph.update</text><rect fill="#FEFECE" filter="url(#fgu23u5oo6sfa)" height="31.6094" style="stroke:#A80036;stroke-width:1.5;" width="78" x="824.5" y="89.6406"/><text fill="#000000" font-family="sans-serif" font-size="14" lengthAdjust="spacing" textLength="64" x="831.5" y="111.1738">Algometer</text><rect fill="#FEFECE" filter="url(#fgu23u5oo6sfa)" height="31.6094" style="stroke:#A80036;stroke-width:1.5;" width="78" x="824.5" y="942.6563"/><text fill="#000000" font-family="sans-serif" font-size="14" lengthAdjust="spacing" textLength="64" x="831.5" y="964.1895">Algometer</text><rect fill="#FEFECE" filter="url(#fgu23u5oo6sfa)" height="31.6094" style="stroke:#A80036;stroke-width:1.5;" width="121" x="1105" y="89.6406"/><text fill="#000000" font-family="sans-serif" font-size="14" lengthAdjust="spacing" textLength="107" x="1112" y="111.1738">ReadingAnalyzer</text><rect fill="#FEFECE" filter="url(#fgu23u5oo6sfa)" height="31.6094" style="stroke:#A80036;stroke-width:1.5;" width="121" x="1105" y="942.6563"/><text fill="#000000" font-family="sans-serif" font-size="14" lengthAdjust="spacing" textLength="107" x="1112" y="964.1895">ReadingAnalyzer</text><rect fill="#FEFECE" filter="url(#fgu23u5oo6sfa)" height="31.6094" style="stroke:#A80036;stroke-width:1.5;" width="88" x="1240" y="89.6406"/><text fill="#000000" font-family="sans-serif" font-size="14" lengthAdjust="spacing" textLength="74" x="1247" y="111.1738">UI_MainWin</text><rect fill="#FEFECE" filter="url(#fgu23u5oo6sfa)" height="31.6094" style="stroke:#A80036;stroke-width:1.5;" width="88" x="1240" y="942.6563"/><text fill="#000000" font-family="sans-serif" font-size="14" lengthAdjust="spacing" textLength="74" x="1247" y="964.1895">UI_MainWin</text><rect fill="#FEFECE" filter="url(#fgu23u5oo6sfa)" height="31.6094" style="stroke:#A80036;stroke-width:1.5;" width="132" x="1351" y="89.6406"/><text fill="#000000" font-family="sans-serif" font-size="14" lengthAdjust="spacing" textLength="118" x="1358" y="111.1738">MeasurementsTab</text><rect fill="#FEFECE" filter="url(#fgu23u5oo6sfa)" height="31.6094" style="stroke:#A80036;stroke-width:1.5;" width="132" x="1351" y="942.6563"/><text fill="#000000" font-family="sans-serif" font-size="14" lengthAdjust="spacing" textLength="118" x="1358" y="964.1895">MeasurementsTab</text><rect fill="#FFFFFF" filter="url(#fgu23u5oo6sfa)" height="238.4609" style="stroke:#A80036;stroke-width:1.0;" width="10" x="632.5" y="271.6563"/><rect fill="#FFFFFF" filter="url(#fgu23u5oo6sfa)" height="117.0547" style="stroke:#A80036;stroke-width:1.0;" width="10" x="860.5" y="302.0078"/><rect fill="#FFFFFF" filter="url(#fgu23u5oo6sfa)" height="41.3516" style="stroke:#A80036;stroke-width:1.0;" width="10" x="865.5" y="340.3594"/><rect fill="#FFFFFF" filter="url(#fgu23u5oo6sfa)" height="30.3516" style="stroke:#A80036;stroke-width:1.0;" width="10" x="1162.5" y="449.4141"/><polygon fill="#A80036" points="159.5,154.6016,169.5,158.6016,159.5,162.6016,163.5,158.6016" style="stroke:#A80036;stroke-width:1.0;"/><line style="stroke:#A80036;stroke-width:1.0;stroke-dasharray:2.0,2.0;" x1="47.5" x2="165.5" y1="158.6016" y2="158.6016"/><text fill="#000000" font-family="sans-serif" font-size="13" lengthAdjust="spacing" textLength="100" x="54.5" y="153.7451">"Start Recording"</text><polygon fill="#A80036" points="416.5,184.9531,426.5,188.9531,416.5,192.9531,420.5,188.9531" style="stroke:#A80036;stroke-width:1.0;"/><line style="stroke:#A80036;stroke-width:1.0;stroke-dasharray:2.0,2.0;" x1="171.5" x2="422.5" y1="188.9531" y2="188.9531"/><text fill="#000000" font-family="sans-serif" font-size="13" lengthAdjust="spacing" textLength="233" x="178.5" y="184.0967">start_reading(algometer_data.algometer)</text><line style="stroke:#A80036;stroke-width:1.0;stroke-dasharray:2.0,2.0;" x1="428.5" x2="470.5" y1="219.3047" y2="219.3047"/><line style="stroke:#A80036;stroke-width:1.0;stroke-dasharray:2.0,2.0;" x1="470.5" x2="470.5" y1="219.3047" y2="232.3047"/><line style="stroke:#A80036;stroke-width:1.0;stroke-dasharray:2.0,2.0;" x1="429.5" x2="470.5" y1="232.3047" y2="232.3047"/><polygon fill="#A80036" points="439.5,228.3047,429.5,232.3047,439.5,236.3047,435.5,232.3047" style="stroke:#A80036;stroke-width:1.0;"/><text fill="#000000" font-family="sans-serif" font-size="13" lengthAdjust="spacing" textLength="112" x="435.5" y="214.4482">self.timer.start(100)</text><path d="M10,247.3047 L76,247.3047 L76,255.3047 L66,265.3047 L10,265.3047 L10,247.3047 " fill="#EEEEEE" style="stroke:#000000;stroke-width:1.0;"/><rect fill="none" height="679.3516" style="stroke:#000000;stroke-width:2.0;" width="1507" x="10" y="247.3047"/><text fill="#000000" font-family="sans-serif" font-size="13" font-weight="bold" lengthAdjust="spacing" textLength="21" x="25" y="261.7998">par</text><text fill="#000000" font-family="sans-serif" font-size="11" font-weight="bold" lengthAdjust="spacing" textLength="266" x="91" y="260.7236">[[Timer Ticking] Until "Stop Recording" pressed]</text><polygon fill="#A80036" points="620.5,267.6563,630.5,271.6563,620.5,275.6563,624.5,271.6563" style="stroke:#A80036;stroke-width:1.0;"/><line style="stroke:#A80036;stroke-width:1.0;stroke-dasharray:2.0,2.0;" x1="428.5" x2="626.5" y1="271.6563" y2="271.6563"/><polygon fill="#A80036" points="848.5,298.0078,858.5,302.0078,848.5,306.0078,852.5,302.0078" style="stroke:#A80036;stroke-width:1.0;"/><line style="stroke:#A80036;stroke-width:1.0;stroke-dasharray:2.0,2.0;" x1="642.5" x2="854.5" y1="302.0078" y2="302.0078"/><text fill="#000000" font-family="sans-serif" font-size="13" lengthAdjust="spacing" textLength="126" x="649.5" y="297.1514">get_reading(Unit.LBF)</text><line style="stroke:#A80036;stroke-width:1.0;stroke-dasharray:2.0,2.0;" x1="870.5" x2="917.5" y1="327.3594" y2="327.3594"/><line style="stroke:#A80036;stroke-width:1.0;stroke-dasharray:2.0,2.0;" x1="917.5" x2="917.5" y1="327.3594" y2="340.3594"/><line style="stroke:#A80036;stroke-width:1.0;stroke-dasharray:2.0,2.0;" x1="876.5" x2="917.5" y1="340.3594" y2="340.3594"/><polygon fill="#A80036" points="886.5,336.3594,876.5,340.3594,886.5,344.3594,882.5,340.3594" style="stroke:#A80036;stroke-width:1.0;"/><text fill="#000000" font-family="sans-serif" font-size="13" lengthAdjust="spacing" textLength="102" x="882.5" y="322.5029">get_reading_raw()</text><line style="stroke:#A80036;stroke-width:1.0;stroke-dasharray:2.0,2.0;" x1="875.5" x2="917.5" y1="380.7109" y2="380.7109"/><line style="stroke:#A80036;stroke-width:1.0;stroke-dasharray:2.0,2.0;" x1="917.5" x2="917.5" y1="380.7109" y2="393.7109"/><line style="stroke:#A80036;stroke-width:1.0;stroke-dasharray:2.0,2.0;" x1="870.5" x2="917.5" y1="393.7109" y2="393.7109"/><polygon fill="#A80036" points="880.5,389.7109,870.5,393.7109,880.5,397.7109,876.5,393.7109" style="stroke:#A80036;stroke-width:1.0;"/><text fill="#000000" font-family="sans-serif" font-size="13" lengthAdjust="spacing" textLength="273" x="882.5" y="375.8545">Output from Physical Algometer in default units</text><polygon fill="#A80036" points="653.5,415.0625,643.5,419.0625,653.5,423.0625,649.5,419.0625" style="stroke:#A80036;stroke-width:1.0;"/><line style="stroke:#A80036;stroke-width:1.0;stroke-dasharray:2.0,2.0;" x1="647.5" x2="864.5" y1="419.0625" y2="419.0625"/><text fill="#000000" font-family="sans-serif" font-size="13" lengthAdjust="spacing" textLength="194" x="659.5" y="414.2061">Algometer Output in desired units</text><polygon fill="#A80036" points="1150.5,445.4141,1160.5,449.4141,1150.5,453.4141,1154.5,449.4141" style="stroke:#A80036;stroke-width:1.0;"/><line style="stroke:#A80036;stroke-width:1.0;stroke-dasharray:2.0,2.0;" x1="642.5" x2="1156.5" y1="449.4141" y2="449.4141"/><text fill="#000000" font-family="sans-serif" font-size="13" lengthAdjust="spacing" textLength="180" x="649.5" y="444.5576">add_reading(Algometer Output)</text><polygon fill="#A80036" points="653.5,475.7656,643.5,479.7656,653.5,483.7656,649.5,479.7656" style="stroke:#A80036;stroke-width:1.0;"/><line style="stroke:#A80036;stroke-width:1.0;stroke-dasharray:2.0,2.0;" x1="647.5" x2="1166.5" y1="479.7656" y2="479.7656"/><text fill="#000000" font-family="sans-serif" font-size="13" lengthAdjust="spacing" textLength="391" x="659.5" y="474.9092">Derivative of accumulated readings (if enough readings are available)</text><polygon fill="#A80036" points="439.5,506.1172,429.5,510.1172,439.5,514.1172,435.5,510.1172" style="stroke:#A80036;stroke-width:1.0;"/><line style="stroke:#A80036;stroke-width:1.0;stroke-dasharray:2.0,2.0;" x1="433.5" x2="636.5" y1="510.1172" y2="510.1172"/><text fill="#000000" font-family="sans-serif" font-size="13" lengthAdjust="spacing" textLength="80" x="445.5" y="505.2607">Update Graph</text><line style="stroke:#000000;stroke-width:1.0;stroke-dasharray:2.0,2.0;" x1="10" x2="1517" y1="519.1172" y2="519.1172"/><text fill="#000000" font-family="sans-serif" font-size="11" font-weight="bold" lengthAdjust="spacing" textLength="92" x="15" y="530.5361">[Stop Recording]</text><path d="M20,540.9531 L81,540.9531 L81,548.9531 L71,558.9531 L20,558.9531 L20,540.9531 " fill="#EEEEEE" style="stroke:#000000;stroke-width:1.0;"/><rect fill="none" height="335.3516" style="stroke:#000000;stroke-width:2.0;" width="1487" x="20" y="540.9531"/><text fill="#000000" font-family="sans-serif" font-size="13" font-weight="bold" lengthAdjust="spacing" textLength="16" x="35" y="555.4482">alt</text><text fill="#000000" font-family="sans-serif" font-size="11" font-weight="bold" lengthAdjust="spacing" textLength="132" x="96" y="554.3721">[Click "Stop Recording"]</text><polygon fill="#A80036" points="159.5,577.6563,169.5,581.6563,159.5,585.6563,163.5,581.6563" style="stroke:#A80036;stroke-width:1.0;"/><line style="stroke:#A80036;stroke-width:1.0;stroke-dasharray:2.0,2.0;" x1="47.5" x2="165.5" y1="581.6563" y2="581.6563"/><text fill="#000000" font-family="sans-serif" font-size="13" lengthAdjust="spacing" textLength="99" x="54.5" y="576.7998">"Stop Recording"</text><polygon fill="#A80036" points="416.5,608.0078,426.5,612.0078,416.5,616.0078,420.5,612.0078" style="stroke:#A80036;stroke-width:1.0;"/><line style="stroke:#A80036;stroke-width:1.0;stroke-dasharray:2.0,2.0;" x1="171.5" x2="422.5" y1="612.0078" y2="612.0078"/><text fill="#000000" font-family="sans-serif" font-size="13" lengthAdjust="spacing" textLength="82" x="178.5" y="607.1514">stop_reading()</text><line style="stroke:#A80036;stroke-width:1.0;stroke-dasharray:2.0,2.0;" x1="428.5" x2="470.5" y1="642.3594" y2="642.3594"/><line style="stroke:#A80036;stroke-width:1.0;stroke-dasharray:2.0,2.0;" x1="470.5" x2="470.5" y1="642.3594" y2="655.3594"/><line style="stroke:#A80036;stroke-width:1.0;stroke-dasharray:2.0,2.0;" x1="429.5" x2="470.5" y1="655.3594" y2="655.3594"/><polygon fill="#A80036" points="439.5,651.3594,429.5,655.3594,439.5,659.3594,435.5,655.3594" style="stroke:#A80036;stroke-width:1.0;"/><text fill="#000000" font-family="sans-serif" font-size="13" lengthAdjust="spacing" textLength="90" x="435.5" y="637.5029">self.timer.stop()</text><line style="stroke:#000000;stroke-width:1.0;stroke-dasharray:2.0,2.0;" x1="20" x2="1507" y1="664.3594" y2="664.3594"/><text fill="#000000" font-family="sans-serif" font-size="11" font-weight="bold" lengthAdjust="spacing" textLength="211" x="25" y="675.7783">[Change tabs from Measurement Tab]</text><polygon fill="#A80036" points="1274,697.5469,1284,701.5469,1274,705.5469,1278,701.5469" style="stroke:#A80036;stroke-width:1.0;"/><line style="stroke:#A80036;stroke-width:1.0;stroke-dasharray:2.0,2.0;" x1="47.5" x2="1280" y1="701.5469" y2="701.5469"/><text fill="#000000" font-family="sans-serif" font-size="13" lengthAdjust="spacing" textLength="220" x="54.5" y="696.6904">"Change tabs from Measurement Tab"</text><polygon fill="#A80036" points="1407,727.8984,1417,731.8984,1407,735.8984,1411,731.8984" style="stroke:#A80036;stroke-width:1.0;"/><line style="stroke:#A80036;stroke-width:1.0;stroke-dasharray:2.0,2.0;" x1="1286" x2="1413" y1="731.8984" y2="731.8984"/><text fill="#000000" font-family="sans-serif" font-size="13" lengthAdjust="spacing" textLength="109" x="1293" y="727.042">stop_all_readings()</text><path d="M74.5,746.8984 L147.5,746.8984 L147.5,754.8984 L137.5,764.8984 L74.5,764.8984 L74.5,746.8984 " fill="#EEEEEE" style="stroke:#000000;stroke-width:1.0;"/><rect fill="none" height="48.7031" style="stroke:#000000;stroke-width:2.0;" width="1422.5" x="74.5" y="746.8984"/><text fill="#000000" font-family="sans-serif" font-size="13" font-weight="bold" lengthAdjust="spacing" textLength="28" x="89.5" y="761.3936">loop</text><text fill="#000000" font-family="sans-serif" font-size="11" font-weight="bold" lengthAdjust="spacing" textLength="196" x="162.5" y="760.3174">[For each measurement region tab]</text><polygon fill="#A80036" points="182.5,783.6016,172.5,787.6016,182.5,791.6016,178.5,787.6016" style="stroke:#A80036;stroke-width:1.0;"/><line style="stroke:#A80036;stroke-width:1.0;stroke-dasharray:2.0,2.0;" x1="176.5" x2="1418" y1="787.6016" y2="787.6016"/><text fill="#000000" font-family="sans-serif" font-size="13" lengthAdjust="spacing" textLength="82" x="188.5" y="782.7451">stop_reading()</text><polygon fill="#A80036" points="416.5,820.9531,426.5,824.9531,416.5,828.9531,420.5,824.9531" style="stroke:#A80036;stroke-width:1.0;"/><line style="stroke:#A80036;stroke-width:1.0;stroke-dasharray:2.0,2.0;" x1="171.5" x2="422.5" y1="824.9531" y2="824.9531"/><text fill="#000000" font-family="sans-serif" font-size="13" lengthAdjust="spacing" textLength="82" x="178.5" y="820.0967">stop_reading()</text><line style="stroke:#A80036;stroke-width:1.0;stroke-dasharray:2.0,2.0;" x1="428.5" x2="470.5" y1="855.3047" y2="855.3047"/><line style="stroke:#A80036;stroke-width:1.0;stroke-dasharray:2.0,2.0;" x1="470.5" x2="470.5" y1="855.3047" y2="868.3047"/><line style="stroke:#A80036;stroke-width:1.0;stroke-dasharray:2.0,2.0;" x1="429.5" x2="470.5" y1="868.3047" y2="868.3047"/><polygon fill="#A80036" points="439.5,864.3047,429.5,868.3047,439.5,872.3047,435.5,868.3047" style="stroke:#A80036;stroke-width:1.0;"/><text fill="#000000" font-family="sans-serif" font-size="13" lengthAdjust="spacing" textLength="90" x="435.5" y="850.4482">self.timer.stop()</text><line style="stroke:#A80036;stroke-width:1.0;stroke-dasharray:2.0,2.0;" x1="171.5" x2="213.5" y1="905.6563" y2="905.6563"/><line style="stroke:#A80036;stroke-width:1.0;stroke-dasharray:2.0,2.0;" x1="213.5" x2="213.5" y1="905.6563" y2="918.6563"/><line style="stroke:#A80036;stroke-width:1.0;stroke-dasharray:2.0,2.0;" x1="172.5" x2="213.5" y1="918.6563" y2="918.6563"/><polygon fill="#A80036" points="182.5,914.6563,172.5,918.6563,182.5,922.6563,178.5,918.6563" style="stroke:#A80036;stroke-width:1.0;"/><text fill="#000000" font-family="sans-serif" font-size="13" lengthAdjust="spacing" textLength="131" x="178.5" y="900.7998">update_reading_table()</text><!--MD5=[6ef72523dec3decb9162ac052e867d05]
@startuml
'https://plantuml.com/sequence-diagram
title Starting and Stopping Recordings
actor User

User - -> MeasurementRegionTab : "Start Recording"

MeasurementRegionTab - -> AlgometerReadingGraph : start_reading(algometer_data.algometer)

AlgometerReadingGraph - -> AlgometerReadingGraph : self.timer.start(100)
par [Timer Ticking] Until "Stop Recording" pressed
    AlgometerReadingGraph - -> AlgometerReadingGraph.update
    activate AlgometerReadingGraph.update
        AlgometerReadingGraph.update - -> Algometer : get_reading(Unit.LBF)

        activate Algometer
            Algometer - -> Algometer : get_reading_raw()
            activate Algometer
            return Output from Physical Algometer in default units
        return Algometer Output in desired units
        AlgometerReadingGraph.update - -> ReadingAnalyzer : add_reading(Algometer Output)
        activate ReadingAnalyzer
        return Derivative of accumulated readings (if enough readings are available)
        AlgometerReadingGraph.update - -> AlgometerReadingGraph : Update Graph
    deactivate AlgometerReadingGraph.update
else Stop Recording
    alt Click "Stop Recording"
        User - -> MeasurementRegionTab : "Stop Recording"
        MeasurementRegionTab - -> AlgometerReadingGraph : stop_reading()
        AlgometerReadingGraph - -> AlgometerReadingGraph : self.timer.stop()
    else Change tabs from Measurement Tab
        User - -> UI_MainWin : "Change tabs from Measurement Tab"
        UI_MainWin - -> MeasurementsTab : stop_all_readings()
        loop For each measurement region tab
            MeasurementsTab - -> MeasurementRegionTab : stop_reading()
        end
        MeasurementRegionTab - -> AlgometerReadingGraph : stop_reading()
        AlgometerReadingGraph - -> AlgometerReadingGraph : self.timer.stop()
    end
    MeasurementRegionTab - -> MeasurementRegionTab : update_reading_table()
end


@enduml

@startuml
title Starting and Stopping Recordings
actor User

User - -> MeasurementRegionTab : "Start Recording"

MeasurementRegionTab - -> AlgometerReadingGraph : start_reading(algometer_data.algometer)

AlgometerReadingGraph - -> AlgometerReadingGraph : self.timer.start(100)
par [Timer Ticking] Until "Stop Recording" pressed
    AlgometerReadingGraph - -> AlgometerReadingGraph.update
    activate AlgometerReadingGraph.update
        AlgometerReadingGraph.update - -> Algometer : get_reading(Unit.LBF)

        activate Algometer
            Algometer - -> Algometer : get_reading_raw()
            activate Algometer
            return Output from Physical Algometer in default units
        return Algometer Output in desired units
        AlgometerReadingGraph.update - -> ReadingAnalyzer : add_reading(Algometer Output)
        activate ReadingAnalyzer
        return Derivative of accumulated readings (if enough readings are available)
        AlgometerReadingGraph.update - -> AlgometerReadingGraph : Update Graph
    deactivate AlgometerReadingGraph.update
else Stop Recording
    alt Click "Stop Recording"
        User - -> MeasurementRegionTab : "Stop Recording"
        MeasurementRegionTab - -> AlgometerReadingGraph : stop_reading()
        AlgometerReadingGraph - -> AlgometerReadingGraph : self.timer.stop()
    else Change tabs from Measurement Tab
        User - -> UI_MainWin : "Change tabs from Measurement Tab"
        UI_MainWin - -> MeasurementsTab : stop_all_readings()
        loop For each measurement region tab
            MeasurementsTab - -> MeasurementRegionTab : stop_reading()
        end
        MeasurementRegionTab - -> AlgometerReadingGraph : stop_reading()
        AlgometerReadingGraph - -> AlgometerReadingGraph : self.timer.stop()
    end
    MeasurementRegionTab - -> MeasurementRegionTab : update_reading_table()
end


@enduml

PlantUML version 1.2022.0(Tue Jan 11 11:16:42 EST 2022)
(GPL source distribution)
Java Runtime: OpenJDK Runtime Environment
JVM: OpenJDK 64-Bit Server VM
Default Encoding: Cp1252
Language: en
Country: CA
--></g></svg>